<svg width="580" height="400" xmlns="http://www.w3.org/2000/svg">
 <!-- Created with Method Draw - http://github.com/duopixel/Method-Draw/ -->

 <g>
  <title>background</title>
  <rect fill="#fff" id="canvas_background" height="402" width="582" y="-1" x="-1"/>
  <g display="none" overflow="visible" y="0" x="0" height="100%" width="100%" id="canvasGrid">
   <rect fill="url(#gridpattern)" stroke-width="0" y="0" x="0" height="100%" width="100%"/>
  </g>
 </g>
 <g>
  <title>Layer 1</title>
  <metadata transform="matrix(0.017777779632144552,0,0,0.017777779632144552,0,0) ">Svg Vector Icons : http://www.onlinewebfonts.com/icon</metadata>
  <g stroke="null" transform="rotate(90.14775848388672 283.2656555175781,215.31204223632812) matrix(0.0630254599296445,0,0,0.10657997285882596,-716.7086718764913,-955.5115866524175) " id="svg_4">
   <g stroke="null" id="svg_5" transform="translate(0,511) scale(0.10000000149011612,-0.10000000149011612) ">
    <path stroke="null" id="svg_6" d="m154234.89364,-99890.695627c-52.7,-23.4 -130.7,-80 -169.7,-124.8c-144.3,-159.9 -134.6,220.4 -128.7,-4772.3l5.8,-4485.6l58.5,-105.3c58.5,-105.3 119,-161.9 243.8,-228.2c66.3,-35.1 208.7,-37.1 4417.3,-37.1l4349,0l105.3,58.5c105.3,58.5 161.9,119 228.2,243.8c35.1,66.3 37.1,216.5 42.9,4553.8c5.9,5086.2 19.5,4624 -158,4797.6c-62.4,60.5 -132.6,107.3 -181.4,122.9c-62.4,17.6 -1039.5,23.4 -4397.8,23.4l-4317.7,0l-97.5,-46.7zm2740.1,-1298.9l0,-1014.1l-1355.4,0l-1355.5,0l0,953.7l0,953.7l50.7,60.5l50.7,60.5l1304.7,0l1304.8,0l0,-1014.3zm3042.4,0l0,-1014.1l-1355.5,0l-1355.4,0l0,1014.1l0,1014.1l1355.4,0l1355.4,0l0,-1014.1l0.1,0zm2991.6,953.7l50.7,-60.5l0,-953.7l0,-953.7l-1355.4,0l-1355.4,0l0,1014.1l0,1014.1l1304.7,0l1304.7,0l50.7,-60.3zm-6034,-3323.2l0,-1023.9l-1355.4,0l-1355.5,0l0,1023.9l0,1023.9l1355.4,0l1355.5,0l0,-1023.9zm3042.4,0l0,-1023.9l-1355.5,0l-1355.4,0l0,1023.9l0,1023.9l1355.4,0l1355.4,0l0,-1023.9l0.1,0zm3042.3,0l0,-1023.9l-1355.4,0l-1355.4,0l0,1023.9l0,1023.9l1355.4,0l1355.4,0l0,-1023.9zm-6084.7,-2369.6l0,-1014.1l-1355.4,0l-1355.5,0l0,1014.1l0,1014.2l1355.4,0l1355.5,0l0,-1014.2zm3042.4,0l0,-1014.1l-1355.5,0l-1355.4,0l0,1014.1l0,1014.2l1355.4,0l1355.4,0l0,-1014.2l0.1,0zm3042.3,0l0,-1014.1l-1355.4,0l-1355.4,0l0,1014.1l0,1014.2l1355.4,0l1355.4,0l0,-1014.2zm-6084.7,-2369.5l0,-1023.9l-1308.6,3.9l-1308.6,5.8l-46.8,54.6l-46.8,54.6l0,965.4l0,963.4l1355.4,0l1355.4,0l0,-1023.8zm3042.4,0l0,-1023.9l-1355.5,0l-1355.4,0l0,1023.9l0,1023.9l1355.4,0l1355.4,0l0,-1023.9l0.1,0zm3042.3,60.4l0,-965.4l-46.8,-54.6l-46.8,-54.6l-1308.6,-5.8l-1308.6,-3.9l0,1023.9l0,1023.9l1355.4,0l1355.4,0l0,-963.5z"/>
   </g>
  </g>
 </g>
</svg>